<?xml version="1.0" encoding="UTF-8"?>
<svg width="24px" height="18px" viewBox="0 0 24 18" version="1.1" xmlns="http://www.w3.org/2000/svg" xmlns:xlink="http://www.w3.org/1999/xlink">
    <!-- Generator: Sketch 52.6 (67491) - http://www.bohemiancoding.com/sketch -->
    <title>Combined Shape</title>
    <desc>Created with Sketch.</desc>
    <g id="32px-Glyphs" stroke="none" stroke-width="1" fill="none" fill-rule="evenodd">
        <path d="M4.54764582,8.23895773 L4.4793713,8.77971123 L4.07987692,9.15049417 C3.39484856,9.78628993 3,10.6722029 3,11.625 C3,13.488961 4.51103897,15 6.375,15 C6.81727681,15 16.8170019,15 17.625,15 C19.488961,15 21,13.488961 21,11.625 C21,9.76924837 19.5016251,8.26187197 17.6471345,8.2500704 L16.5533449,8.24310977 L16.2255996,7.19955482 C15.4470462,4.72060861 13.139904,3 10.5,3 C7.46921082,3 4.92369361,5.26055256 4.54764582,8.23895773 Z M10.5,0 C14.1109098,0 17.3058156,2.14544512 18.7268177,5.34486789 C21.7237191,5.86695457 24,8.48126868 24,11.625 C24,15.1458153 21.1458153,18 17.625,18 C16.4679367,18 7.0193626,18 6.375,18 C2.85418472,18 0,15.1458153 0,11.625 C0,10.0166402 0.600329544,8.50162614 1.65249187,7.34246496 C2.43631849,3.12923405 6.13119759,0 10.5,0 Z" id="Combined-Shape" fill="#FF4F42"></path>
    </g>
</svg>