<svg width="24" height="24" viewBox="0 0 24 24" fill="none" xmlns="http://www.w3.org/2000/svg">
<path fill-rule="evenodd" clip-rule="evenodd" d="M12 24C5.37258 24 0 18.6274 0 12C0 5.37258 5.37258 0 12 0C18.6274 0 24 5.37258 24 12C24 18.6274 18.6274 24 12 24ZM12 21C16.9706 21 21 16.9706 21 12C21 7.02944 16.9706 3 12 3C7.02944 3 3 7.02944 3 12C3 16.9706 7.02944 21 12 21ZM11.3955 12.6676L12.3672 12.8033C12.6271 12.8373 12.7966 12.9165 12.8983 13.0183C13.0113 13.1428 13.0565 13.3012 13.0565 13.4935C13.0565 13.9574 12.6836 14.229 11.904 14.229C11.4124 14.229 10.9774 14.1045 10.5819 13.9348L10.5539 13.923C10.1838 13.7672 10.0175 13.6972 9.81356 13.6972C9.61017 13.6972 9.42938 13.7538 9.27119 13.9122C9.1017 14.0819 9 14.3421 9 14.5571C9 15.1455 9.39548 15.451 10.0508 15.7112C10.4124 15.8583 10.8079 15.9262 11.2316 15.9601V16.2091C11.2316 16.5711 11.2429 16.7069 11.3333 16.8823C11.4463 17.1029 11.6893 17.25 12 17.25C12.3107 17.25 12.5537 17.1029 12.6667 16.8823C12.7571 16.7069 12.7684 16.5711 12.7684 16.2091V15.8979C14.0452 15.6433 15 14.7947 15 13.4483C15 12.7015 14.8305 12.1018 14.4011 11.6832C14.0621 11.3438 13.5424 11.1175 12.8192 11.0156L11.8475 10.8798C11.565 10.8402 11.3955 10.7441 11.2938 10.6422C11.1695 10.5178 11.1356 10.3707 11.1356 10.2123C11.1356 9.9181 11.4181 9.53341 12.1073 9.53341C12.4689 9.53341 12.8588 9.61261 13.2034 9.7597C13.4181 9.85021 13.678 9.95205 13.904 9.95205C14.1525 9.95205 14.3503 9.8389 14.4802 9.6805C14.6328 9.49946 14.7175 9.26185 14.7175 9.0695C14.7175 8.63955 14.3898 8.29445 13.8927 8.09644C13.5537 7.96633 13.1921 7.87015 12.7684 7.82489V7.79095C12.7684 7.42888 12.7571 7.2931 12.6667 7.11773C12.5537 6.89709 12.3107 6.75 12 6.75C11.6893 6.75 11.4463 6.89709 11.3333 7.11773C11.2429 7.2931 11.2316 7.42888 11.2316 7.79095V7.89844C9.96045 8.19828 9.22599 9.13739 9.22599 10.3367C9.22599 11.0269 9.40678 11.57 9.77966 11.9547C10.1412 12.3281 10.6836 12.5657 11.3955 12.6676Z" fill="#FF4F42"/>
</svg>
