<?xml version="1.0" encoding="UTF-8"?>
<svg width="24px" height="24px" viewBox="0 0 24 24" version="1.1" xmlns="http://www.w3.org/2000/svg" xmlns:xlink="http://www.w3.org/1999/xlink">
    <title>Glyph</title>
    <defs>
        <path d="M21,12 L21,9.6746212 L17.5319858,13.0715809 C17.2516261,13.3461965 16.8748078,13.5 16.48236,13.5 L8.48414699,13.5 C8.28590594,13.5 8.09572798,13.5784866 7.95518873,13.7183016 L3,18.6479538 L3,21 L5.4458076,21 L10.3713203,16.0606602 C10.9571068,15.4748737 11.9068542,15.4748737 12.4926407,16.0606602 C13.0784271,16.6464466 13.0784271,17.5961941 12.4926407,18.1819805 L9.6746212,21 L12,21 C12.8284271,21 13.5,21.6715729 13.5,22.5 C13.5,23.3284271 12.8284271,24 12,24 L1.5,24 C0.671572875,24 0,23.3284271 0,22.5 L0,12 C0,11.1715729 0.671572875,10.5 1.5,10.5 C2.32842712,10.5 3,11.1715729 3,12 L3,14.4319805 L6.53321466,10.9340331 C6.81407437,10.6559769 7.19332319,10.5 7.58854144,10.5 L15.6219203,10.5 C15.8204777,10.5 16.0109325,10.4212634 16.1515255,10.281054 L21,5.4458076 L21,3 L17.8979538,3 L12.9319805,7.99264069 C12.3461941,8.57842712 11.3964466,8.57842712 10.8106602,7.99264069 C10.2248737,7.40685425 10.2248737,6.45710678 10.8106602,5.87132034 L13.6819805,3 L12,3 C11.1715729,3 10.5,2.32842712 10.5,1.5 C10.5,0.671572875 11.1715729,0 12,0 L22.5,0 C23.3284271,0 24,0.671572875 24,1.5 L24,12 C24,12.8284271 23.3284271,13.5 22.5,13.5 C21.6715729,13.5 21,12.8284271 21,12 Z" id="path-1"></path>
    </defs>
    <g id="32px-Glyphs" stroke="none" stroke-width="1" fill="none" fill-rule="evenodd">
        <g id="Exchange">
            <mask id="mask-2" fill="white">
                <use xlink:href="#path-1"></use>
            </mask>
            <use id="Glyph" fill="#FF4F42" xlink:href="#path-1"></use>
        </g>
    </g>
</svg>