<svg xmlns="http://www.w3.org/2000/svg" width="24" height="22" viewBox="0 0 24 22">
  <g fill="none" fill-rule="evenodd" transform="translate(0 -1)">
    <rect width="24" height="24"/>
    <path fill="#FF4F42" d="M21,1.5 C22.6568542,1.5 24,2.84314575 24,4.5 C24,6.09802293 22.7505452,7.40422005 21.1752613,7.49496574 L17.4960492,14.8351756 C17.8143885,15.3115093 18,15.8840787 18,16.5 C18,18.1568542 16.6568542,19.5 15,19.5 C13.3431458,19.5 12,18.1568542 12,16.5 C12,16.1051316 12.0762885,15.7280813 12.2149307,15.3827841 L9.47787853,11.9621469 C9.32225766,11.9870577 9.16264025,12 9,12 C8.9973255,12 8.99465181,11.9999965 8.99197895,11.9999895 L5.58172789,17.9711142 C5.84744024,18.4188391 6,18.9416034 6,19.5 C6,21.1568542 4.65685425,22.5 3,22.5 C1.34314575,22.5 0,21.1568542 0,19.5 C0,17.8431458 1.34314575,16.5 3,16.5 L2.964,16.501 L6.39710226,10.4926388 C6.17198291,10.100916 6.03274745,9.65356179 6.00509269,9.17627279 L6,9 C6,7.34314575 7.34314575,6 9,6 C10.6568542,6 12,7.34314575 12,9 C12,9.3759026 11.9308638,9.73565759 11.8046134,10.0672431 L14.5749187,13.5298838 C14.6502537,13.5191984 14.7264891,13.5113114 14.8035165,13.5063315 L18.4939492,6.14976099 C18.1817272,5.67644029 18,5.10944248 18,4.5 C18,2.84314575 19.3431458,1.5 21,1.5 Z"/>
  </g>
</svg>
