<?xml version="1.0" encoding="UTF-8"?>
<svg width="24px" height="18px" viewBox="0 0 24 18" version="1.1" xmlns="http://www.w3.org/2000/svg" xmlns:xlink="http://www.w3.org/1999/xlink">
    <!-- Generator: Sketch 61.2 (89653) - https://sketch.com -->
    <title>Glyph/Rocket Copy 2</title>
    <desc>Created with Sketch.</desc>
    <g id="Home" stroke="none" stroke-width="1" fill="none" fill-rule="evenodd">
        <g id="V4" transform="translate(-204.000000, -4085.000000)">
            <g id="Virtual-Cards" transform="translate(204.000000, 3641.000000)">
                <g id="Spending-limit">
                    <g id="Content">
                        <g id="Group-6" transform="translate(0.000000, 441.000000)">
                            <g id="Credit-Card">
                                <rect id="Bounding-Box" x="0" y="0" width="24" height="24"></rect>
                                <path d="M24,19.5 C24,20.3284271 23.3284271,21 22.5,21 L1.5,21 C0.671572875,21 0,20.3284271 0,19.5 L0,4.5 C0,3.67157288 0.671572875,3 1.5,3 L22.5,3 C23.3284271,3 24,3.67157288 24,4.5 L24,19.5 Z M21,12 L3,12 L3,18 L21,18 L21,12 Z M21,6 L3,6 L3,9 L21,9 L21,6 Z" id="Glyph" fill="#FF4F42" fill-rule="evenodd"></path>
                            </g>
                        </g>
                    </g>
                </g>
            </g>
        </g>
    </g>
</svg>