<?xml version="1.0" encoding="UTF-8"?>
<svg width="24px" height="24px" viewBox="0 0 24 24" version="1.1" xmlns="http://www.w3.org/2000/svg" xmlns:xlink="http://www.w3.org/1999/xlink">
    <!-- Generator: Sketch 61.2 (89653) - https://sketch.com -->
    <title>Glyph/Rocket Copy 6</title>
    <desc>Created with Sketch.</desc>
    <g id="Home" stroke="none" stroke-width="1" fill="none" fill-rule="evenodd">
        <g id="V4" transform="translate(-820.000000, -3149.000000)">
            <g id="International-payments" transform="translate(204.000000, 2774.000000)">
                <g id="Global-Accounts-Copy-2">
                    <g id="Group-29" transform="translate(616.000000, 0.000000)">
                        <g id="Group-6-Copy" transform="translate(0.000000, 375.000000)">
                            <g id="Globe">
                                <rect id="Bounding-Box" x="0" y="0" width="24" height="24"></rect>
                                <path d="M12,0 C18.627417,0 24,5.372583 24,12 C24,18.627417 18.627417,24 12,24 C5.372583,24 0,18.627417 0,12 C0,5.372583 5.372583,0 12,0 Z M12,3 C11.9400995,3 11.8198058,3.04923134 11.6020554,3.23343264 C11.2251009,3.55230923 10.8168718,4.10389749 10.4406409,4.85635941 C9.54269503,6.65225112 9,9.21840145 9,12 C9,14.7815985 9.54269503,17.3477489 10.4406409,19.1436406 C10.8168718,19.8961025 11.2251009,20.4476908 11.6020554,20.7665674 C11.8198058,20.9507687 11.9400995,21 12,21 C12.0599005,21 12.1801942,20.9507687 12.3979446,20.7665674 C12.7748991,20.4476908 13.1831282,19.8961025 13.5593591,19.1436406 C14.457305,17.3477489 15,14.7815985 15,12 C15,9.21840145 14.457305,6.65225112 13.5593591,4.85635941 C13.1831282,4.10389749 12.7748991,3.55230923 12.3979446,3.23343264 C12.1801942,3.04923134 12.0599005,3 12,3 Z M7.41800982,4.2522527 L7.3863092,4.27092395 C4.75902411,5.84259846 3,8.71587818 3,12 C3,15.2969198 4.77276037,18.1797892 7.41706367,19.7473908 C6.53339236,17.6572155 6,14.9531882 6,12 C6,9.04681179 6.53339236,6.34278451 7.41800982,4.2522527 Z M16.5829363,4.25260923 L16.6676151,4.45923222 C17.500912,6.519846 18,9.14335474 18,12 C18,14.9531882 17.4666076,17.6572155 16.5819902,19.7477473 C19.2272396,18.1797892 21,15.2969198 21,12 C21,8.70308022 19.2272396,5.82021082 16.5829363,4.25260923 Z" id="Glyph" fill="#FF4F42" fill-rule="evenodd"></path>
                            </g>
                        </g>
                    </g>
                </g>
            </g>
        </g>
    </g>
</svg>