<svg xmlns="http://www.w3.org/2000/svg" width="24" height="22" viewBox="0 0 24 22">
  <g fill="none" fill-rule="evenodd" transform="translate(0 -1)">
    <rect width="24" height="24"/>
    <path fill="#FF4F42" d="M6,16.5 C7.1105424,16.5 8.08014684,17.1034271 8.59881997,18.000288 L22.5,18 C23.3284271,18 24,18.6715729 24,19.5 C24,20.3284271 23.3284271,21 22.5,21 L8.59823591,21.0007215 C8.07941917,21.8970257 7.11012568,22.5 6,22.5 C4.88987432,22.5 3.92058083,21.8970257 3.40176409,21.0007215 L1.5,21 C0.671572875,21 1.01453063e-16,20.3284271 0,19.5 C-1.01453063e-16,18.6715729 0.671572875,18 1.5,18 L3.40118003,18.000288 C3.91985316,17.1034271 4.8894576,16.5 6,16.5 Z M18,9 C19.1105424,9 20.0801468,9.60342711 20.59882,10.500288 L22.5,10.5 C23.3284271,10.5 24,11.1715729 24,12 C24,12.8284271 23.3284271,13.5 22.5,13.5 L20.5982359,13.5007215 C20.0794192,14.3970257 19.1101257,15 18,15 C16.8898743,15 15.9205808,14.3970257 15.4017641,13.5007215 L1.5,13.5 C0.671572875,13.5 1.01453063e-16,12.8284271 0,12 C-1.01453063e-16,11.1715729 0.671572875,10.5 1.5,10.5 L15.40118,10.500288 C15.9198532,9.60342711 16.8894576,9 18,9 Z M12,1.5 C13.1105424,1.5 14.0801468,2.10342711 14.59882,3.00028797 L22.5,3 C23.3284271,3 24,3.67157288 24,4.5 C24,5.32842712 23.3284271,6 22.5,6 L14.5982359,6.00072151 C14.0794192,6.89702566 13.1101257,7.5 12,7.5 C10.8898743,7.5 9.92058083,6.89702566 9.40176409,6.00072151 L1.5,6 C0.671572875,6 1.01453063e-16,5.32842712 0,4.5 C-1.01453063e-16,3.67157288 0.671572875,3 1.5,3 L9.40118003,3.00028797 C9.91985316,2.10342711 10.8894576,1.5 12,1.5 Z"/>
  </g>
</svg>
