<?xml version="1.0" encoding="UTF-8"?>
<svg width="226px" height="80px" viewBox="0 0 226 80" version="1.1" xmlns="http://www.w3.org/2000/svg" xmlns:xlink="http://www.w3.org/1999/xlink">
    <title>Financial time final</title>
    <g id="Financial-time-final" stroke="none" stroke-width="1" fill="none" fill-rule="evenodd">
        <g id="Financial_Times_masthead" transform="translate(26.000000, 33.000000)" fill="#1A1D21">
            <path d="M4.32144023,11.986685 C4.32144023,12.966962 4.60159013,13.1909829 6.3939222,13.1909829 L6.3939222,13.8070816 L0.14857685,13.8070816 L0.14857685,13.1909829 C1.38077419,13.1909829 1.80108159,13.0788899 1.80108159,12.0147495 L1.80108159,2.01651803 C1.80108159,0.952212524 1.38077419,0.840119545 0.14857685,0.840119545 L0.14857685,0.224020873 L10.6229146,0.224020873 L10.6790436,3.9488425 L10.1748729,3.9488425 C9.89472296,1.14833397 9.19459583,0.896413662 6.59004364,0.896413662 L4.2935408,0.896413662 L4.2935408,6.44163188 L6.14183681,6.44163188 C7.90626945,6.44163188 8.01836243,6.16148197 8.15835484,4.7612277 L8.66252562,4.7612277 L8.66252562,8.82216319 L8.15835484,8.82216319 C8.01836243,7.42190892 7.90626945,7.16965844 6.14183681,7.16965844 L4.2935408,7.16965844 L4.2935408,11.9868501 L4.32160531,11.9868501 L4.32144023,11.986685 Z M11.9672049,13.8070816 L11.9672049,13.1909829 C13.1995674,13.1909829 13.6197097,13.0788899 13.6197097,12.0147495 L13.6197097,2.01651803 C13.6197097,0.952212524 13.1995674,0.840119545 11.9672049,0.840119545 L11.9672049,0.224020873 L17.7925731,0.224020873 L17.7925731,0.84028463 C16.5602106,0.84028463 16.1400683,0.952377609 16.1400683,2.01668311 L16.1400683,12.0149146 C16.1400683,13.079055 16.5602106,13.191148 17.7925731,13.191148 L17.7925731,13.8072467 L11.9670398,13.8072467 L11.9672049,13.8070816 Z M31.0114554,14.0311025 L21.713351,2.52052372 L21.713351,11.9587856 C21.713351,13.0511556 22.4694421,13.2190474 23.7579336,13.2190474 L23.7579336,13.8353112 L18.828814,13.8353112 L18.828814,13.2190474 C20.1169753,13.2190474 20.8172676,13.0511556 20.8172676,11.9587856 L20.8172676,1.48428273 C20.2290683,0.868184061 19.808926,0.840119545 18.828814,0.840119545 L18.828814,0.224020873 L23.1977989,0.224020873 L30.3113283,9.38213283 L30.3113283,2.07248197 C30.3113283,0.98027704 29.5552372,0.812220114 28.2669108,0.812220114 L28.2669108,0.224020873 L33.2239298,0.224020873 L33.2239298,0.84028463 C31.9357685,0.84028463 31.2354763,1.00834156 31.2354763,2.10071157 L31.2354763,14.0314326 L31.0114554,14.0314326 L31.0114554,14.0311025 Z M37.6490436,13.8070816 L32.7478235,13.8070816 L32.7478235,13.1909829 C34.0361499,13.1909829 34.6243491,13.022926 35.0443264,11.9026565 L39.4694402,0.084028463 L40.7016376,0.084028463 L45.4627002,11.986685 C45.8828425,13.0509905 46.0787989,13.1629184 47.0590759,13.1629184 L47.0590759,13.7790171 L41.3738653,13.7790171 L41.3738653,13.1629184 C43.1102334,13.1629184 43.2782903,13.022926 42.8579829,11.986685 L41.4578937,8.37395636 L37.2008368,8.37395636 L35.94074,11.874592 C35.5486622,12.9388975 36.1647609,13.1629184 37.6771082,13.1629184 L37.6771082,13.8070816 L37.6490436,13.8070816 L37.6490436,13.8070816 Z M37.4529222,7.67366414 L41.1496793,7.67366414 L39.2173548,2.80067362 L37.4529222,7.67366414 Z M59.8299165,14.0311025 L50.5598767,2.52052372 L50.5598767,11.9587856 C50.5598767,13.0511556 51.3159677,13.2190474 52.6042941,13.2190474 L52.6042941,13.8353112 L47.7871025,13.8353112 L47.7871025,13.2190474 C48.9635009,13.2190474 49.6636281,13.0511556 49.6636281,11.9587856 L49.6636281,1.51234725 C48.9915655,0.896248577 48.4873947,0.840119545 47.3672903,0.840119545 L47.3672903,0.224020873 L52.0160949,0.224020873 L59.1296243,9.38213283 L59.1296243,2.07248197 C59.1296243,0.98027704 58.3735332,0.812220114 57.0853719,0.812220114 L57.0853719,0.224020873 L62.0144915,0.224020873 L62.0144915,0.84028463 C60.7261651,0.84028463 60.026038,1.00834156 60.026038,2.10071157 L60.026038,14.0314326 L59.8299165,14.0314326 L59.8299165,14.0311025 Z M73.5810342,0.196121442 L73.917148,0.196121442 L74.1131044,4.25689184 L73.6090987,4.28495636 C73.2729848,1.96055408 72.0407875,0.728191651 69.7721841,0.728191651 C67.2516603,0.728191651 65.3472353,2.88470209 65.3472353,6.1893814 C65.3472353,10.4183738 68.0077514,12.8268046 70.80826,12.8268046 C72.012723,12.8268046 73.1049279,12.4908558 74.1690683,11.3426869 L74.5613112,11.7345996 C73.692962,12.966962 71.9846584,14.003203 69.6879905,14.003203 C66.2713833,14.003203 62.7986471,11.4265503 62.7986471,7.11352941 C62.798482,2.94066603 65.9631689,0 69.8002486,0 C71.6206452,0 72.5728577,0.784155598 73.0768634,0.784155598 C73.3008843,0.784155598 73.4689412,0.588199241 73.5810342,0.196121442 L73.5810342,0.196121442 Z M75.6814156,13.8070816 L75.6814156,13.1909829 C76.913778,13.1909829 77.3339203,13.0788899 77.3339203,12.0147495 L77.3339203,2.01651803 C77.3339203,0.952212524 76.913778,0.840119545 75.6814156,0.840119545 L75.6814156,0.224020873 L81.5067837,0.224020873 L81.5067837,0.84028463 C80.2745863,0.84028463 79.8542789,0.952377609 79.8542789,2.01668311 L79.8542789,12.0149146 C79.8542789,13.079055 80.2745863,13.191148 81.5067837,13.191148 L81.5067837,13.8072467 L75.6814156,13.8072467 L75.6814156,13.8070816 Z M86.996038,13.8070816 L82.4309317,13.8070816 L82.4309317,13.1909829 C83.4392732,13.1909829 83.9713435,13.022926 84.3914858,11.9026565 L88.8164345,0.084028463 L90.0486319,0.084028463 L94.8096945,11.986685 C95.2298368,13.0509905 95.4259583,13.1629184 96.4060702,13.1629184 L96.4060702,13.7790171 L90.7210247,13.7790171 L90.7210247,13.1629184 C92.4573928,13.1629184 92.6254497,13.022926 92.2053074,11.986685 L90.8050531,8.37395636 L86.5481613,8.37395636 L85.2877343,11.874592 C84.8956565,12.9388975 85.5119203,13.1629184 87.0242676,13.1629184 L87.0242676,13.8070816 L86.996203,13.8070816 L86.996038,13.8070816 Z M86.7999165,7.67366414 L90.4968387,7.67366414 L88.5924137,2.80067362 L86.7999165,7.67366414 L86.7999165,7.67366414 Z M97.3582827,13.8070816 L97.3582827,13.1909829 C98.5906452,13.1909829 99.0107875,13.0788899 99.0107875,12.0147495 L99.0107875,2.01651803 C99.0107875,0.952212524 98.5906452,0.840119545 97.3582827,0.840119545 L97.3582827,0.224020873 L103.155586,0.224020873 L103.155586,0.84028463 C101.923389,0.84028463 101.531146,0.952377609 101.531146,2.01668311 L101.531146,12.0989431 C101.531146,12.9950266 101.979353,13.1071195 102.707545,13.1071195 L103.407672,13.1071195 C106.040288,13.1071195 106.880408,12.7150417 107.6086,9.71841176 L108.11277,9.77437571 L107.692628,13.7793472 L97.3582827,13.7793472 L97.3582827,13.8074118 L97.3582827,13.8070816 Z M125.58871,0.224020873 L125.644674,4.17286338 L125.140503,4.17286338 C124.860683,1.26026186 124.160391,0.896413662 121.555674,0.896413662 L120.715554,0.896413662 L120.715554,11.9868501 C120.715554,13.0511556 121.107632,13.191148 122.788036,13.191148 L122.788036,13.8072467 L116.122548,13.8072467 L116.122548,13.191148 C117.802953,13.191148 118.22293,13.0230911 118.22293,11.9868501 L118.22293,0.896248577 L117.38281,0.896248577 C114.778258,0.896248577 114.078131,1.26026186 113.797981,4.17286338 L113.293975,4.17286338 L113.349939,0.224020873 L125.58871,0.224020873 L125.58871,0.224020873 Z M126.904935,13.8072467 L126.904935,13.1909829 C128.137298,13.1909829 128.55744,13.0788899 128.55744,12.0147495 L128.55744,2.01651803 C128.55744,0.952212524 128.137298,0.840119545 126.904935,0.840119545 L126.904935,0.224020873 L132.730304,0.224020873 L132.730304,0.84028463 C131.497941,0.84028463 131.077799,0.952377609 131.077799,2.01668311 L131.077799,12.0149146 C131.077799,13.079055 131.497941,13.191148 132.730304,13.191148 L132.730304,13.8072467 L126.904935,13.8072467 Z M150.262372,0.223855787 L150.262372,0.84028463 C149.030009,0.84028463 148.497939,0.896413662 148.609867,1.9886186 L149.674173,12.0708786 C149.786266,13.1071195 150.178343,13.2190474 151.410541,13.2190474 L151.410541,13.8353112 L145.613237,13.8353112 L145.613237,13.2190474 C146.817535,13.2190474 147.237677,13.1071195 147.153649,12.0708786 L146.061279,1.48411765 L141.776323,14.0590019 L141.608266,14.0590019 L137.407173,1.4563833 L136.398831,12.042649 C136.286903,13.1069545 137.015095,13.2188824 138.247292,13.2188824 L138.247292,13.8351461 L133.71025,13.8351461 L133.71025,13.2188824 C134.942613,13.2188824 135.362755,13.022926 135.446619,12.042649 L136.510924,1.96038899 C136.623017,0.896248577 136.090782,0.812220114 134.858419,0.812220114 L134.858419,0.224020873 L139.619482,0.224020873 L142.476285,9.49406072 L145.556943,0.224020873 L150.261877,0.224020873 L150.262372,0.223855787 Z M161.100723,8.82183302 L160.596717,8.82183302 C160.45656,7.42157875 160.344632,7.16932827 158.580199,7.16932827 L156.507552,7.16932827 L156.507552,12.0986129 C156.507552,12.9946964 156.955759,13.1067894 157.683786,13.1067894 L158.804055,13.1067894 C161.436672,13.1067894 162.276791,12.7147116 163.004983,9.71808159 L163.509154,9.77404554 L163.033047,13.7790171 L152.334689,13.7790171 L152.334689,13.1627533 C153.566886,13.1627533 153.987028,13.0508254 153.987028,11.9865199 L153.987028,2.01651803 C153.987028,0.952212524 153.566886,0.840119545 152.334524,0.840119545 L152.334524,0.224020873 L162.612905,0.224020873 L162.669034,3.61272865 L162.164863,3.61272865 C161.856814,1.20413283 161.240715,0.924148008 158.55197,0.924148008 L156.535617,0.924148008 L156.535617,6.44130171 L158.608099,6.44130171 C160.372366,6.44130171 160.484459,6.16131689 160.624452,4.76106262 L161.128622,4.76106262 L161.128622,8.8219981 L161.100558,8.8219981 L161.100723,8.82183302 Z M171.911175,11.0062429 C171.911175,9.77404554 171.127019,9.15794687 169.782729,8.4016907 L167.626218,7.28142125 C166.001778,6.41323719 165.049731,5.46102467 165.049731,3.75272106 C165.049565,1.62444023 166.869962,0 169.250493,0 C170.874934,0 171.715053,0.784155598 172.191159,0.784155598 C172.499209,0.784155598 172.639201,0.588199241 172.779194,0.196121442 L173.171271,0.196121442 L173.367393,4.00497154 L172.863222,4.03303605 C172.583237,2.18440987 171.266846,0.756091082 169.41855,0.756091082 C168.018131,0.756091082 167.093983,1.59637571 167.093983,2.77260911 C167.093983,4.06093548 168.074095,4.59300569 169.166465,5.18120493 L171.014761,6.16131689 C172.751294,7.11352941 173.983491,8.06574194 173.983491,9.88613852 C173.983491,12.2947343 171.911009,14.003203 169.334522,14.003203 C167.51396,14.003203 166.617877,13.1348539 166.14177,13.1348539 C165.833721,13.1348539 165.665664,13.4150038 165.525672,13.8351461 L165.133429,13.8351461 L164.853444,9.80211006 L165.357615,9.74614611 C165.749693,12.2666698 167.486061,13.3029108 169.222429,13.3029108 C170.678812,13.2748463 171.911009,12.6308482 171.911009,11.0065731 L171.911175,11.0062429 Z" id="Shape"></path>
        </g>
    </g>
</svg>