<svg xmlns="http://www.w3.org/2000/svg" width="240" height="64" viewBox="0 0 240 64">
  <path fill="#18171C" d="M142.462741,16 L142.462741,31.9452163 L142.259309,32.1132351 L142.055877,32.2812539 L141.860915,32.4576826 L141.674432,32.6341014 L141.496429,32.8105201 L141.318426,32.9953488 L141.148903,33.1801675 L140.979369,33.3649961 L140.979369,16 L123.153462,16 L123.153462,30.5170365 L121.67856,30.5170365 L121.67856,16 L103.852653,16 L103.852653,30.5422363 L102.37775,30.5422363 L102.37775,16 L84.551843,16 L84.551843,32.5752918 L80,47.6047846 L84.0008744,47.6047846 L86.0097863,40.951152 L86.5861839,40.951152 L89.9089347,47.6047846 L94.7404969,47.6047846 L91.5194521,40.951152 L98.826128,40.951152 L96.8002668,47.6047846 L101.165627,47.6047846 L103.166059,40.9679519 L104.132372,40.9679519 L104.132372,40.9511122 L105.505548,40.9511122 L105.615744,40.9511122 L113.863303,40.9511122 L111.930679,47.5879548 L116.338417,47.5879548 L118.211704,40.9511122 L120.195187,40.9511122 L120.246005,47.5879548 L123.941722,47.5879548 L128.188417,40.9511122 L130.968678,40.9511122 L129.527685,47.5879548 L133.867616,47.5879548 L135.283181,40.9511122 L137.792193,40.9511122 L137.775254,41.3291595 L137.784222,41.7156067 L137.801161,42.0852541 L137.83504,42.4549015 L137.860449,42.6313202 L137.885858,42.8077489 L137.919737,42.9841677 L137.953616,43.1605964 L137.995964,43.3370152 L138.038313,43.505034 L138.089131,43.6730528 L138.139949,43.8410816 L138.199336,44.0091004 L138.258724,44.1687192 L138.326481,44.3283381 L138.394339,44.479557 L138.470666,44.6391759 L138.546992,44.7903948 L138.631789,44.9332138 L138.716586,45.0844327 L138.809852,45.2272517 L138.911568,45.3616707 L139.013294,45.5044897 L139.12348,45.6304988 L139.233675,45.7649179 L139.343871,45.8909369 L139.471016,46.016956 L139.598161,46.1345652 L139.759215,46.2689843 L139.920269,46.4034033 L140.089792,46.5294124 L140.267795,46.6470316 L140.445808,46.7646507 L140.623811,46.8738599 L140.810294,46.9662294 L141.005247,47.0670387 L141.191729,47.1510382 L141.386692,47.2350376 L141.581644,47.310667 L141.785076,47.3862964 L141.988508,47.4535557 L142.19195,47.5123454 L142.395382,47.571135 L142.598815,47.6215546 L143.005679,47.7139241 L143.421033,47.7811834 L143.827897,47.8399731 L144.234761,47.8903927 L144.633155,47.9239725 L145.02307,47.9408123 L145.404506,47.957652 L145.768991,47.957652 L146.260632,47.9496805 L146.752263,47.9417091 L147.252374,47.9164993 L147.752474,47.8912895 L148.252585,47.8492399 L148.752695,47.8071904 L149.252806,47.7567708 L149.752916,47.6979811 L150.261497,47.6307218 L150.770087,47.5550924 L151.278667,47.471093 L151.787257,47.3870935 L152.295838,47.294724 L152.804428,47.1939147 L153.313008,47.0931055 L153.830068,46.9754863 L155.338879,40.9519293 L160.289107,40.9519293 L160.289107,16.0007772 L142.46319,16.0007772 L142.462741,16 Z M101.733545,31.3907402 L101.479255,32.2392542 L99.1058571,40.0522385 L99.0125909,40.3294765 L91.2142841,40.3294765 L90.6124575,39.0525056 L99.0125909,30.5422363 L93.6131108,30.5422363 L87.0438862,37.5571262 L89.1714635,30.5422363 L85.1875484,30.5422363 L85.1875484,16.6300855 L101.733545,16.6300855 L101.733545,31.3907402 L101.733545,31.3907402 Z M106.336236,37.9939732 L106.336236,37.9939732 L106.209091,38.0019446 L106.090426,38.0099161 L105.963281,38.0178876 L105.827656,38.0178876 L105.649653,38.0178876 L105.497079,38.0178876 L105.352974,38.0258591 L105.21735,38.0258591 L104.157801,38.0178876 L104.649432,36.2200604 L104.878293,35.3295468 L105.437741,33.2376916 L105.615744,33.2376916 L105.802227,33.2376916 L105.98023,33.2297202 L106.149763,33.2297202 L106.971971,33.2297202 L107.472082,33.2376916 L107.929804,33.2545314 L108.133236,33.2625029 L108.328199,33.2793426 L108.514681,33.3045524 L108.684205,33.3297622 L108.836779,33.354972 L108.980883,33.3970215 L109.116508,33.4390711 L109.235173,33.4894907 L109.336889,33.5399103 L109.430156,33.6071696 L109.514952,33.674429 L109.58271,33.7584284 L109.625058,33.8256877 L109.658937,33.8929471 L109.692816,33.9685765 L109.718225,34.0525759 L109.735164,34.1449454 L109.744132,34.2373149 L109.744132,34.3381242 L109.744132,34.4473334 L109.735164,34.5649526 L109.727193,34.6825617 L109.701784,34.8169808 L109.676375,34.9513998 L109.600048,35.2370378 L109.506781,35.5562755 L109.413515,35.8251136 L109.311799,36.0855417 L109.201613,36.32917 L109.082938,36.5559984 L109.023551,36.6568176 L108.964163,36.7576269 L108.896306,36.8584362 L108.819979,36.9508057 L108.743652,37.0431752 L108.667325,37.1271747 L108.582529,37.2111741 L108.497732,37.2868035 L108.404466,37.3540628 L108.311199,37.4296922 L108.209483,37.4884819 L108.099288,37.5557412 L107.989092,37.6145308 L107.870427,37.6649504 L107.751751,37.71537 L107.624606,37.7574196 L107.488991,37.8078392 L107.344887,37.841419 L107.192313,37.8749989 L107.039739,37.9085787 L106.870205,37.9337885 L106.700682,37.9589983 L106.522679,37.975838 L106.336196,37.9926778 L106.336236,37.9939732 Z M118.389707,40.3294765 L120.12738,34.1967002 L120.195237,40.3294765 L118.389757,40.3294765 L118.389707,40.3294765 Z M121.034355,30.5170365 L116.897855,30.5170365 L114.049786,40.3294765 L109.658997,40.3294765 L109.862429,40.245477 L110.065861,40.1614776 L110.260823,40.0774781 L110.455776,39.9851086 L110.642259,39.8927392 L110.820262,39.78352 L110.998275,39.6827107 L111.167798,39.5734915 L111.337332,39.4558823 L111.498375,39.3382631 L111.650959,39.220654 L111.803533,39.0862349 L111.947628,38.9602158 L112.083253,38.8173969 L112.218877,38.6829778 L112.346022,38.5317589 L112.473167,38.3889499 L112.591843,38.229321 L112.702029,38.0781021 L112.812224,37.9100833 L112.91394,37.7420645 L113.007207,37.5740457 L113.100473,37.397617 L113.185269,37.2127983 L113.270066,37.0279696 L113.346393,36.8431509 L113.414151,36.6499223 L113.482008,36.4483037 L113.532826,36.2466752 L113.592213,36.0450466 L113.634562,35.8266182 L113.67691,35.6165997 L113.736298,35.2805521 L113.787116,34.9613143 L113.820995,34.6588765 L113.846404,34.3732385 L113.855372,34.0876006 L113.846404,33.8271724 L113.838432,33.5667343 L113.804554,33.323106 L113.770675,33.0962776 L113.711287,32.8694493 L113.6519,32.6594208 L113.567103,32.4577922 L113.473837,32.2645736 L113.372121,32.071345 L113.253455,31.8949262 L113.117831,31.7269074 L113.007635,31.6092883 L112.897439,31.4916791 L112.778774,31.3908598 L112.651629,31.2984903 L112.516004,31.2061208 L112.380379,31.1221214 L112.236285,31.046492 L112.092181,30.9792327 L111.939607,30.9119733 L111.787033,30.8615537 L111.625979,30.8111341 L111.464925,30.7607145 L111.295402,30.718665 L111.125868,30.6850852 L110.956345,30.6515053 L110.778332,30.6262955 L110.413846,30.5758759 L110.04936,30.5506661 L109.676405,30.5254563 L109.294959,30.5174848 L108.532089,30.5174848 L107.777688,30.5174848 L107.540348,30.5174848 L107.116524,30.5174848 L106.590985,30.5174848 L106.006107,30.5174848 L105.438189,30.5174848 L104.955038,30.5174848 L104.615981,30.5174848 L104.488836,30.5174848 L104.488836,16.6305339 L121.034803,16.6305339 L121.034803,30.5174848 L121.034355,30.5170365 Z M131.087384,40.3294765 L128.6038,40.3294765 L132.367324,34.4487284 L131.087384,40.3294765 L131.087384,40.3294765 Z M140.335164,30.7942645 L140.326196,34.1967002 L140.114284,34.4907381 L139.919322,34.793176 L139.72437,35.0956138 L139.546367,35.3980516 L139.376833,35.7004895 L139.20731,36.0113273 L139.063205,36.3137651 L138.919111,36.616203 L138.783486,36.9102409 L138.664821,37.2126787 L138.546145,37.5067166 L138.444429,37.7923546 L138.351163,38.0779826 L138.266367,38.3552206 L138.19004,38.6240586 L138.122182,38.8928867 L138.079834,39.0693155 L138.037486,39.2541342 L137.995137,39.4305629 L137.961258,39.6153816 L137.927379,39.7918003 L137.90197,39.968229 L137.876561,40.1446478 L137.859622,40.3294765 L135.426887,40.3294765 L137.503616,30.5422363 L130.502088,30.5342648 L124.238012,40.3299049 L123.780289,40.3299049 L123.780289,16.630514 L140.334736,16.630514 L140.334736,30.794693 L140.335164,30.7942645 Z M149.879613,44.3367779 L149.532077,44.3955675 L149.17607,44.4459871 L148.820054,44.4964067 L148.472528,44.5384563 L148.124991,44.5720361 L147.777455,44.5972459 L147.438398,44.6140857 L147.099341,44.6140857 L146.87896,44.6140857 L146.658568,44.6061142 L146.446657,44.5892744 L146.234755,44.5640646 L146.031313,44.5304848 L145.83636,44.4969049 L145.641398,44.4548554 L145.454925,44.4044358 L145.276912,44.3456462 L145.098909,44.2868565 L144.929386,44.2112271 L144.768332,44.1355977 L144.607278,44.0432283 L144.454704,43.9508588 L144.3106,43.8500495 L144.174985,43.7492302 L144.03936,43.631621 L143.920685,43.5056019 L143.802019,43.3795828 L143.691824,43.2367639 L143.590108,43.0939549 L143.496841,42.934326 L143.412045,42.7747072 L143.327248,42.6066883 L143.259391,42.4302696 L143.200003,42.237041 L143.149185,42.0438223 L143.098367,41.8421938 L143.064488,41.6321653 L143.039079,41.4137369 L143.02214,41.1869085 L143.013172,40.9516802 L150.726712,40.9516802 L149.879075,44.337306 L149.879613,44.3367779 Z M159.661403,40.3294765 L155.491005,40.3294765 L156.177588,37.590726 L147.819843,37.590726 L147.13325,40.3294765 L143.089997,40.3294765 L143.089997,39.7666005 L143.140815,39.5313722 L143.183164,39.2961438 L143.233982,39.0441057 L143.2848,38.7920774 L143.361127,38.5148394 L143.437454,38.2376114 L143.52225,37.9603734 L143.615517,37.6915353 L143.717233,37.4227072 L143.827428,37.1538691 L143.946094,36.893441 L144.064769,36.6330029 L144.200394,36.3725747 L144.336009,36.1289464 L144.480113,35.8769082 L144.641167,35.6416799 L144.802221,35.4064516 L144.963264,35.1796232 L145.141277,34.9611948 L145.32775,34.7511663 L145.522713,34.5495377 L145.717675,34.364719 L145.929577,34.1799003 L146.141488,34.0034716 L146.36188,33.8438527 L146.599221,33.6926338 L146.836561,33.5582148 L147.082372,33.4322057 L147.336662,33.3145865 L147.599432,33.2137772 L147.870681,33.1297778 L148.1504,33.0625184 L148.438599,33.0037288 L148.735278,32.9616793 L149.040426,32.9364695 L149.354054,32.928498 L149.599874,32.9364695 L149.845684,32.9533092 L150.091505,32.986889 L150.328846,33.0373086 L150.447511,33.0708885 L150.557707,33.1044683 L150.667902,33.1380482 L150.769619,33.1884678 L150.871335,33.2305173 L150.973051,33.289307 L151.066317,33.3480966 L151.159583,33.4068863 L151.24438,33.4825156 L151.329176,33.558145 L151.405503,33.6337744 L151.48183,33.7261439 L151.549687,33.8101434 L151.609075,33.9109526 L151.659893,34.0201619 L151.710711,34.1293811 L151.75306,34.2470002 L151.786938,34.3730094 L151.812348,34.4990284 L151.837757,34.6418474 L151.846725,34.7846664 L151.846725,34.9358853 L151.846725,35.0955042 L151.829785,35.263523 L156.813921,35.263523 L156.890248,34.9190755 L156.958105,34.5242283 L156.991984,34.3141998 L157.008924,34.0873714 L157.025863,33.860543 L157.025863,33.6253147 L157.017892,33.3816864 L156.992482,33.1296582 L156.967073,33.0120391 L156.950134,32.88602 L156.916255,32.7600108 L156.882376,32.6339918 L156.840028,32.4995727 L156.797679,32.3735636 L156.746861,32.2475445 L156.687474,32.1215254 L156.628086,31.9955063 L156.551759,31.8694972 L156.475433,31.7434781 L156.390636,31.617459 L156.28892,31.4830499 L156.178724,31.3570309 L156.068528,31.2310118 L155.949863,31.1134026 L155.822718,30.9957834 L155.687093,30.8865742 L155.551469,30.7857549 L155.407374,30.6849457 L155.25479,30.5841364 L155.102216,30.5001369 L154.941172,30.4161375 L154.771639,30.332138 L154.602115,30.2565086 L154.424102,30.1808793 L154.23762,30.1136199 L154.051147,30.0463606 L153.864664,29.9875709 L153.661232,29.9371513 L153.46627,29.8867317 L153.254358,29.8363122 L153.042446,29.7942626 L152.830534,29.7522131 L152.610153,29.7186332 L152.381292,29.6934234 L151.91509,29.6430038 L151.440408,29.6009543 L150.940298,29.5841145 L150.431708,29.5761431 L150.050272,29.5841145 L149.651878,29.592086 L149.236534,29.6172958 L148.804241,29.6508757 L148.354988,29.7012953 L147.897266,29.7600849 L147.431064,29.8357143 L146.956383,29.9365236 L146.719042,29.9869432 L146.473222,30.0457328 L146.235881,30.1129922 L145.99007,30.1802515 L145.74425,30.2558809 L145.498439,30.3398803 L145.252619,30.4238798 L145.015278,30.5162493 L144.769468,30.6170586 L144.523647,30.7262778 L144.286307,30.835487 L144.040486,30.9531061 L143.803155,31.0791153 L143.565815,31.2135343 L143.328474,31.3479533 L143.091133,31.4991723 L143.091133,16.6292983 L159.662539,16.6292983 L159.662539,40.3286893 L159.661403,40.3294765 Z"/>
</svg>
