<?xml version="1.0" encoding="UTF-8"?>
<svg width="226px" height="80px" viewBox="0 0 226 80" version="1.1" xmlns="http://www.w3.org/2000/svg" xmlns:xlink="http://www.w3.org/1999/xlink">
    <title>The economist final</title>
    <g id="The-economist-final" stroke="none" stroke-width="1" fill="none" fill-rule="evenodd">
        <g id="Page-1" transform="translate(54.000000, 22.000000)" fill="#1A1D21" fill-rule="nonzero">
            <path d="M21.3613255,36.2235864 C21.9823273,36.00711 22.8187864,35.4637736 23.3090227,34.9573927 L23.7044836,34.5496491 L23.5148255,34.0957782 L23.3251136,33.6419609 L22.8814336,34.0674045 C22.0208918,34.8926 20.8678173,35.2617791 19.9359927,35.0099027 C18.4329945,34.6037682 17.6153618,32.7460727 17.6153618,29.7384673 C17.6153618,26.7238891 18.4533764,25.3071382 20.2430609,25.2974836 C21.3179336,25.2921736 21.7958873,25.7802645 22.1382482,27.2350436 C22.2700864,27.7966164 22.3172327,27.8625355 22.5412182,27.8025164 C22.6805118,27.7649709 22.9157609,27.7333791 23.0631,27.7328427 C23.32565,27.7312336 23.3310136,27.7039327 23.3310136,26.3118545 L23.3310136,24.8924218 L22.4672536,24.6909636 C21.1400218,24.3812673 19.6075236,24.3303127 18.6896982,24.5655618 C16.1841291,25.2074818 14.7642136,27.3443545 14.7593727,30.48058 C14.7550955,33.1077427 15.7597582,35.0720673 17.5617791,35.9588909 C18.7287991,36.5332827 20.18036,36.6340118 21.3607891,36.2235864 L21.3613255,36.2235864 Z M33.4484945,36.2262682 C34.3476545,35.9754645 34.9300918,35.6587955 35.5661118,35.0758218 C37.06321,33.7030527 37.7345764,31.5088427 37.3450691,29.2583682 C36.8242064,26.2443264 34.6659327,24.3973045 31.6658364,24.3973045 C28.2268873,24.3973045 26.0648055,26.73998 26.0712275,30.4591255 C26.0760691,33.2642 27.3068627,35.2724527 29.5401736,36.11803 C30.6975927,36.5562927 32.1223355,36.5959836 33.4484945,36.2262682 Z M30.8920782,35.3019527 C29.6414391,34.5517945 29.0032736,32.6640627 28.9952282,29.6960945 C28.9909909,27.7697982 29.1972764,26.8455364 29.7936591,26.12107 C30.9692609,24.6952545 32.9828773,25.3001655 33.8911018,27.3534727 C34.36101,28.4160091 34.5501855,29.4566082 34.5550127,31.00568 C34.5619855,33.2861373 34.0475591,34.7430618 33.0310964,35.3191164 C32.3800582,35.6877591 31.5232709,35.6807864 30.8920782,35.3019527 Z M62.6842818,36.2846782 C63.9474182,36.01301 65.3484,34.9954745 66.0065182,33.8723827 C66.7177364,32.6597718 67.0368727,30.8336682 66.7971182,29.3553427 C66.3245818,26.4468573 64.3507636,24.5918436 61.5530909,24.4294864 C59.6259364,24.3174936 58.1471818,24.8329391 57.0417364,26.0026409 C56.0076273,27.09575 55.4852091,28.6148391 55.4846721,30.5293355 C55.4830636,34.70557 58.5666182,37.1703755 62.6842818,36.2846782 Z M60.3875727,35.3442718 C59.1115636,34.6959155 58.4164364,32.6898082 58.4105364,29.6366655 C58.4051727,27.4450836 58.7538091,26.34881 59.6731364,25.6688618 C60.1569364,25.30982 61.1518909,25.2616009 61.7520818,25.5680791 C63.1616455,26.2871818 63.9501,28.1979236 63.9704818,30.9461973 C63.9865727,33.1404073 63.5258364,34.5914318 62.6022182,35.2489064 C62.0513727,35.6411491 61.0564182,35.6840045 60.3875727,35.3442718 Z M105.844927,36.1506945 C106.704182,35.8340255 107.637455,34.9113191 107.911,34.1091873 C108.136273,33.4469391 108.173282,32.3189664 107.985018,31.8174664 C107.650327,30.9258155 106.8372,30.1671291 104.509382,28.5724664 C104.002518,28.2252782 103.4801,27.7671164 103.348691,27.5543945 C103.062809,27.0914591 103.0376,26.3391555 103.295055,25.9710491 C103.676945,25.42664 104.610755,25.1447809 105.362736,25.3473655 C105.914655,25.4957773 106.149045,25.78831 106.446191,26.69868 C106.5835,27.1203691 106.708473,27.31169 106.842564,27.3041809 L107.456164,27.2747345 L107.872382,27.2548891 L107.872382,26.1918164 C107.872382,25.4416582 107.824109,25.0799345 107.706109,24.9626318 C107.614927,24.8715036 107.025464,24.7000818 106.396845,24.5811164 C103.026336,23.9472418 101.083091,25.1624809 101.086845,27.9011 C101.088991,29.4249627 101.618918,30.1590836 103.785827,31.6417 C105.614827,32.8934118 106.227355,33.7753545 105.829909,34.5871409 C105.534909,35.1888873 105.088118,35.4112636 104.175227,35.4112636 C103.452209,35.4112636 103.315973,35.3748445 103.048864,35.1074673 C102.881518,34.9397464 102.616018,34.4842664 102.457791,34.0947055 C102.154745,33.3461564 101.925718,33.2106173 101.249364,33.3804836 C100.976355,33.4484945 100.966164,33.4914036 100.966164,34.56574 C100.966164,35.3164345 101.014973,35.7177418 101.114736,35.7949245 C101.1968,35.8581618 101.612482,36.0060373 102.037818,36.1228573 C103.689818,36.5772109 104.669755,36.5841836 105.844927,36.1506945 Z M117.111245,36.0472836 C117.7581,35.79117 117.818173,35.7365145 117.853573,35.3657264 C117.886827,35.0184845 117.862155,34.97402 117.677109,35.0453027 C117.558036,35.09084 117.1386,35.15515 116.744373,35.1883509 C115.828264,35.2655336 115.292973,35.0115118 114.957745,34.3396091 C114.736764,33.8986109 114.716382,33.5814055 114.680445,30.0234909 L114.641827,26.1832345 L117.249091,26.1832345 L117.317745,25.8402836 C117.355827,25.6511618 117.4218,25.35643 117.465245,25.1850082 L117.543555,24.8736491 L114.659527,24.8736491 L114.659527,21.7776509 L113.489718,21.7776509 L113.411945,22.2411227 C113.292873,22.9435982 112.715209,24.0709809 112.291482,24.4273409 C111.909591,24.7488373 111.252545,24.9904691 110.759627,24.9920782 C110.518264,24.9920782 110.491982,25.0499518 110.491982,25.5879245 L110.491982,26.1832345 L111.898327,26.1832345 L111.949282,30.0234909 C112.004527,34.1734973 112.061918,34.5914318 112.681418,35.4042909 C112.8493,35.6239855 113.268736,35.9476273 113.614155,36.12393 C114.196109,36.4196809 114.323764,36.4395264 115.325155,36.3848709 C116.066945,36.3446436 116.629591,36.2380145 117.111245,36.0472836 Z M10.9566218,36.2316318 L11.3826018,36.1608855 L11.5915691,34.5357036 C11.7062436,33.6419609 11.8294464,32.7637191 11.8648464,32.5837155 C11.9280836,32.2643645 11.9157473,32.2563191 11.3788473,32.2563191 C10.8537473,32.2563191 10.8280018,32.2723564 10.8280018,32.5922436 C10.8280018,33.18809 10.4663318,34.0218673 10.0473245,34.3894373 C9.49326091,34.8759727 8.97191545,34.9933291 7.35853364,34.9938655 C5.27095273,34.9949382 5.41882818,35.2655336 5.37329091,31.3576955 L5.33579909,28.1759864 L6.92129,28.2311782 C9.08015364,28.3061618 9.35611273,28.4679827 9.57414455,29.7850773 C9.64167273,30.1928209 9.68131,30.2319218 10.0296245,30.2319218 L10.41114,30.2319218 L10.4240127,27.6117318 L10.4368318,24.9926145 L10.0500064,24.9926145 C9.66849091,24.9926145 9.66098182,25.0038782 9.53236182,25.7320455 C9.45952364,26.1473518 9.30521182,26.5685045 9.18088273,26.69278 C8.78113091,27.0925318 7.48602727,27.2398709 5.97611,27.0587945 L5.35076364,26.9837573 L5.35076364,20.9433909 L6.80929727,20.9529918 C7.61142909,20.9578191 8.48108909,21.02642 8.74149364,21.1046755 C9.33412182,21.28307 9.70544636,21.8060782 9.81690273,22.6183473 L9.89939545,23.2184845 L10.3339573,23.1826018 L10.7685191,23.1467191 L10.7685191,19.6932882 L0.111992727,19.6932882 L0.111992727,19.99333 C0.111992727,20.2666073 0.177375455,20.3062445 0.832114545,20.4305736 C2.31639364,20.7129691 2.25476545,20.3877182 2.25476545,27.9691645 C2.25476545,34.8663182 2.24940182,34.9284827 1.57964455,35.2687518 C1.39422364,35.3625082 0.988089091,35.4766464 0.677266364,35.5221836 C0.180593636,35.5939491 0.111456364,35.63954 0.111456364,35.8929718 L0.111456364,36.18175 L3.83280091,36.2150045 C5.87961818,36.2332409 8.22336636,36.2600055 9.04207182,36.2744873 C9.86083091,36.2894518 10.7219091,36.26966 10.9566218,36.2310955 L10.9566218,36.2316318 Z M46.0720809,36.0365564 C46.0688627,35.7815155 45.9118691,35.6432945 45.4183609,35.4600191 C44.7019936,35.1942509 44.6590845,34.9649018 44.6516291,31.3169855 C44.64412,27.8287445 44.6901936,27.5228027 45.3412318,26.7624536 C45.8395136,26.1805527 46.3434273,25.9447673 47.0879,25.9447673 C48.7517,25.9447673 49.1266182,27.1321691 49.0214909,32.0574891 C48.9555182,35.1224318 48.9040273,35.30678 48.0565727,35.5216473 C47.7122273,35.6089673 47.6215818,35.6899045 47.6215818,35.9085264 L47.6215818,36.1855045 L53.5918455,36.1855045 L53.5537636,35.9202727 C53.5231909,35.70916 53.4089455,35.6368582 52.9943364,35.5666482 C52.2718545,35.4433918 51.9334091,35.1915691 51.8422273,34.7071791 C51.8003909,34.4821209 51.7558727,32.7273 51.743,30.8063673 C51.7231545,27.9053909 51.6856091,27.2136427 51.5198727,26.7179891 C51.2350636,25.8654927 50.7062091,25.2090909 49.9794364,24.8061745 C49.4055273,24.4883791 49.2456909,24.4567873 48.2169455,24.4567873 C46.8207909,24.4567873 46.2619,24.6823818 45.2367482,25.66028 L44.5256909,26.3386191 L44.5246182,25.7545727 C44.5246182,25.4336127 44.4913636,24.9775964 44.4522627,24.7418645 L44.38157,24.3126664 L43.6249755,24.4707327 C43.0318109,24.5955982 40.6768527,24.8725764 40.2095727,24.8731127 C40.1602809,24.8731127 40.1201073,25.0070964 40.1201073,25.1710627 C40.1201073,25.4228855 40.1758355,25.4689591 40.4812409,25.4689591 C41.1607064,25.4689591 41.6391964,25.7615455 41.7779536,26.2630455 C41.9612291,26.92052 41.9370927,34.3299545 41.7511891,34.8722182 C41.58615,35.3517809 41.1992709,35.5859573 40.5670055,35.5881027 C40.1704718,35.5897118 40.1201073,35.6234491 40.1201073,35.8876082 L40.1201073,36.1855045 L43.09714,36.1855045 C45.4001782,36.1855045 46.07369,36.1517673 46.0720809,36.0365564 Z M75.4631455,35.9267091 C75.4357909,35.7418782 75.2807818,35.6202309 74.9176636,35.4996564 C74.6387545,35.4069727 74.3437545,35.2151691 74.2633,35.0736764 C74.1581727,34.8904545 74.1045364,33.8493191 74.0771818,31.4632518 C74.0407091,28.2343964 74.0492909,28.0886127 74.2997727,27.5051027 C74.7857182,26.3766473 75.6878818,25.82902 76.8137091,25.9801673 C77.4503727,26.0658782 77.8295818,26.4463209 78.0779182,27.2495255 C78.2517,27.8094891 78.2828091,28.4337091 78.2828091,31.3630591 C78.2828091,33.8900291 78.2431182,34.8850909 78.1353091,35.0736764 C78.0537818,35.2151691 77.7593182,35.4069727 77.4809455,35.4996564 C77.1178273,35.6202309 76.9622818,35.7418782 76.9354636,35.9267091 L76.8973818,36.1855045 L82.3908182,36.1855045 L82.3908182,35.8929718 C82.3908182,35.6545045 82.3162636,35.5864936 81.9821091,35.5237927 C81.1427,35.3662627 81.1448455,35.37699 81.1056909,31.4515055 L81.0708273,27.9332282 L81.3851364,27.2902355 C81.7858,26.4720664 82.3983273,26.0434045 83.2715273,25.9710491 C84.1313182,25.8997664 84.5979545,26.1542709 84.9315727,26.8765918 C85.1783,27.4102736 85.1890273,27.5903309 85.1890273,31.2012382 C85.1890273,34.7270245 85.1745455,34.9852836 84.9642909,35.2177973 C84.8409273,35.3544627 84.5593364,35.5001927 84.3394273,35.5414391 C84.0176091,35.6014582 83.9393,35.6722045 83.9393,35.9004809 L83.9393,36.1855045 L89.8591455,36.1855045 L89.8055091,35.9015536 C89.7620636,35.6748864 89.6574727,35.6057491 89.2814818,35.5553845 C88.6233636,35.4669918 88.2575636,35.1894236 88.1132818,34.6680782 C88.0403364,34.4055282 87.9883091,32.81462 87.9877727,30.81865 C87.9877727,27.1048682 87.9341364,26.7077982 87.2980091,25.70689 C87.0705909,25.3479018 86.7439455,25.05317 86.3116364,24.81363 C85.7275364,24.4910609 85.5612636,24.4567873 84.5936636,24.4567873 C83.6582455,24.4567873 83.4345818,24.4996427 82.8365364,24.7938382 C82.4584,24.9792055 81.8362182,25.4346855 81.4537909,25.8054736 L80.7570545,26.4805945 L80.3349364,25.8076191 C80.0474455,25.3489209 79.7293818,25.0269418 79.3362273,24.7954473 C78.8111273,24.48736 78.6566545,24.4567873 77.6279091,24.4567873 C76.2617909,24.4567873 75.7184545,24.6786273 74.6414364,25.6757809 L73.9366545,26.3278918 L73.9350455,25.5707609 C73.9339727,25.1544355 73.9028636,24.7006182 73.8658545,24.5623436 C73.8004182,24.31803 73.7768182,24.3158845 73.0393182,24.4701964 C72.4434182,24.5950618 70.0882455,24.8725764 69.6205364,24.8731127 C69.5711909,24.8731127 69.5309636,25.0070964 69.5309636,25.1710627 C69.5309636,25.4191309 69.5878182,25.4689591 69.8704818,25.4689591 C70.5044636,25.4689591 70.9753909,25.7143991 71.1507818,26.1360882 C71.3985818,26.7271073 71.3921455,34.3460455 71.1443455,34.9397464 C70.9550091,35.3924909 70.5892091,35.5897118 69.9402091,35.5897118 C69.5829909,35.5897118 69.5309636,35.62774 69.5309636,35.8876082 L69.5309636,36.1855045 L75.5012273,36.1855045 L75.4631455,35.9267091 Z M98.3004364,35.9969191 C98.2602091,35.8935082 98.2274909,35.7664973 98.2274909,35.7145236 C98.2274909,35.6630864 97.9807636,35.5928764 97.6782545,35.5591391 C96.8383091,35.46431 96.6602364,35.2108782 96.5502818,33.9602391 C96.4998636,33.3831655 96.4542727,30.9756973 96.4499818,28.6116209 L96.4414,24.31213 L95.5783909,24.4621509 C95.1037091,24.5446436 94.1007091,24.6738 93.3492636,24.7488373 C92.5988909,24.8238209 91.9643727,24.9052945 91.9402364,24.9299136 C91.7997091,25.0692609 92.0845182,25.4689591 92.3237364,25.4689591 C92.8209455,25.4689591 93.3508727,25.7288273 93.5203636,26.0556873 C93.7418818,26.4854218 93.8749,30.9895891 93.7333,33.3011555 C93.6142273,35.2537336 93.5230455,35.4391009 92.6187364,35.5569936 C92.1011455,35.6250582 91.9225364,35.7472418 91.9187818,36.0365564 C91.9171727,36.1517673 92.6407273,36.1855045 95.1444727,36.1855045 C98.0386909,36.1855045 98.3648,36.1657127 98.3004364,35.9969191 Z M95.7387636,21.9501991 C96.9300273,21.3339709 96.7884273,19.48593 95.5151,19.04225 C93.7665545,18.4335309 92.6289273,20.9348091 94.2144182,21.9014436 L95.7387636,21.9501991 Z M74.7106273,15.8020773 C75.3365636,15.6488382 76.1196545,15.1875118 76.7649,14.5927382 C77.4460818,13.9647636 77.5442364,13.7696882 77.3720636,13.3908545 L77.2336818,13.0875945 L76.6549455,13.6282491 C75.2448455,14.9474355 73.4705545,15.1258836 72.3479455,14.0612018 C71.6662273,13.4149909 71.0858818,11.7817636 71.0810545,10.4952418 L71.0789091,9.98945091 L77.6520455,9.98945091 L77.5656909,9.12890909 C77.4573455,8.04813636 77.2588909,7.47589 76.7193091,6.68818636 C75.9104727,5.50722091 74.7690909,5.02873091 73.0049909,5.13053273 C70.7898091,5.25915273 69.1533636,6.79052455 68.6395273,9.21730182 C68.4153273,10.2750109 68.4153273,11.2765091 68.6395273,12.2254436 C68.8771364,13.2327882 69.2037818,13.8382891 69.9182182,14.5938109 C71.0976818,15.8417682 72.7990273,16.2709664 74.7106273,15.8020773 Z M71.0204455,8.60917273 C71.213,7.46033545 71.4624091,6.83933364 71.9092,6.39243545 C72.3216636,5.97986455 72.4166,5.94071 73.0119636,5.94071 C73.4882545,5.94071 73.7719909,6.01306545 74.0675273,6.20862364 C74.5261182,6.51193727 75.0694545,7.51606364 75.1863818,8.27587636 L75.2614727,8.76509364 L74.8077091,8.84222273 C74.5577636,8.88507818 73.5858727,8.95475182 72.6483091,8.99760727 L70.9421364,9.07479 L71.0204455,8.60917273 Z M51.7891273,15.4366527 C51.7891273,15.13822 51.7499727,15.1092564 51.3423364,15.1076473 C50.7271273,15.1049655 50.3382636,14.8826427 50.0926091,14.3934255 C49.9027364,14.0145918 49.8845,13.4503373 49.8839636,7.92541636 L49.8839636,1.87217727 L51.2232636,1.95686909 C51.9602273,2.00347909 52.7599455,2.11976273 53.0002364,2.21405545 C53.5183636,2.41873182 53.8133636,2.94597727 53.8133636,3.66615273 C53.8133636,4.14517909 53.8219455,4.15483364 54.2301182,4.15483364 L54.6468727,4.15483364 L54.6468727,0.836941818 L48.3955545,0.835869091 L42.1444509,0.834796364 L42.1433782,1.69056455 C42.1428418,2.16208182 42.1080318,2.91224 42.0657127,3.35854818 L41.9890664,4.17087091 L42.4536645,4.13284273 C42.9166,4.09535091 42.9182091,4.09266909 42.9819827,3.49950455 C43.0173291,3.17210818 43.1094764,2.79005636 43.1871955,2.65022636 C43.4095718,2.24940182 44.1195027,2.04687091 45.6267918,1.95418727 L47.0256818,1.86842273 L47.0256818,8.01815364 C47.0256818,14.9126255 47.0439182,14.75885 46.2222091,14.9839082 C45.9761791,15.0508464 45.64181,15.1199836 45.4778436,15.1371473 C45.2597582,15.1601573 45.1713655,15.2480673 45.14562,15.4661527 L45.11081,15.7640491 L51.7885909,15.7640491 L51.7891273,15.4366527 Z M60.3623636,15.4934536 C60.3623636,15.2871682 60.2770818,15.2052118 60.0013909,15.1505564 C59.8034727,15.1108655 59.5352909,14.9442173 59.4065636,14.7802509 C59.1871909,14.5011273 59.1716364,14.2857236 59.1716364,11.3981564 C59.1716364,8.88454182 59.2059636,8.23302091 59.3556091,7.87344273 C59.7278455,6.98399091 60.4165364,6.50871909 61.3358636,6.50871909 C62.4461364,6.50871909 62.7974545,6.99793636 62.9969818,8.82189455 C63.1519909,10.2444918 63.0752909,14.1774855 62.8832727,14.6570482 C62.7899455,14.8890255 62.6204545,15.0144273 62.2728909,15.1081836 C61.8947545,15.2099855 61.7912364,15.2941409 61.7912364,15.5009627 L61.7912364,15.7640491 L67.1495091,15.7640491 L67.1495091,15.4961355 C67.1495091,15.3209055 67.0776364,15.2282218 66.9408636,15.2282218 C66.8266182,15.2276855 66.5402,15.1735664 66.3052727,15.1081836 C65.5972727,14.9115527 65.5661636,14.7513409 65.4910727,10.8226382 C65.4256364,7.45229 65.4116909,7.28725091 65.1451182,6.74498727 C64.8104273,6.06664818 64.1067182,5.43491909 63.4754182,5.24520727 C63.2211818,5.16968727 62.6714091,5.10752273 62.2535818,5.10752273 C61.3589273,5.10752273 60.3435909,5.53618455 59.6184273,6.22203273 L59.1716364,6.64318545 L59.1716364,0.339732727 L58.9034545,0.398679091 C58.1407455,0.565273636 57.2047909,0.691748182 56.1631727,0.768394545 C55.4406909,0.821440909 55.0046273,0.903397273 55.005698,0.985943636 C55.0094545,1.25010273 55.1918182,1.38081455 55.6589909,1.45370636 C56.2377273,1.54370818 56.5150273,1.85555 56.6115727,2.52267909 C56.6518,2.79810182 56.6678909,5.59834909 56.6480455,8.74417545 C56.6062091,15.2630318 56.6437545,15.0149636 55.6761545,15.1601573 C55.1928909,15.2325127 54.9155909,15.4656164 55.0518273,15.6853109 C55.0786455,15.7287027 56.2843909,15.7640491 57.7309636,15.7640491 L60.3618273,15.7640491 L60.3623636,15.4934536 Z" id="Shape"></path>
        </g>
    </g>
</svg>